/vscmnt/brussel_pixiu_data/_data_brussel/112/vsc11236/PredSimResults/SUBJ04mtu3D/worker7.mot
version=1
nRows=5
nColumns=50
inDegrees=yes
endheader
                time	         pelvis_tilt	         pelvis_list	     pelvis_rotation	           pelvis_tx	           pelvis_ty	           pelvis_tz	       hip_flexion_r	     hip_adduction_r	      hip_rotation_r	        knee_angle_r	       ankle_angle_r	         mtp_angle_r	       hip_flexion_l	     hip_adduction_l	      hip_rotation_l	        knee_angle_l	       ankle_angle_l	         mtp_angle_l	    lumbar_extension	      lumbar_bending	     lumbar_rotation	 ercspn_r/activation	 intobl_r/activation	 extobl_r/activation	    abd_r/activation	    add_r/activation	hamstrings_r/activation	bifemsh_r/activation	glut_max_r/activation	iliopsoas_r/activation	rect_fem_r/activation	  vasti_r/activation	gastroc_r/activation	 soleus_r/activation	tib_ant_r/activation	 ercspn_l/activation	 intobl_l/activation	 extobl_l/activation	    abd_l/activation	    add_l/activation	hamstrings_l/activation	bifemsh_l/activation	glut_max_l/activation	iliopsoas_l/activation	rect_fem_l/activation	  vasti_l/activation	gastroc_l/activation	 soleus_l/activation	tib_ant_l/activation	
          0.68717325	         -3.02019807	         -1.25283837	         -8.37133682	          0.64594285	          0.87919243	          0.01185328	        -12.86104582	          0.46382323	         -7.99571012	         -7.43750827	         10.98962190	         23.86206545	         29.35442450	         -4.02205600	         -8.56800487	         -8.01458297	          5.43689526	          0.23476372	        -14.04918435	          4.58498838	          6.64512978	          0.01802358	          0.00999999	          0.01000000	          0.05396715	          0.01000007	          0.02327113	          0.13391107	          0.01613419	          0.01000227	          0.01000003	          0.01000000	          0.34287418	          0.19484037	          0.00999999	          0.02586519	          0.22931808	          0.01856629	          0.01000000	          0.23127894	          0.09733696	          0.12255551	          0.01638410	          0.16332729	          0.01438169	          0.01000000	          0.02268473	          0.01856591	          0.29888627	
          0.70091671	         -3.10394091	         -1.28622775	         -8.15821273	          0.66238002	          0.87694852	          0.01135096	        -13.61514368	          0.37281709	         -8.63985230	         -7.93536214	         10.50347193	         25.34818608	         29.38556117	         -3.97989190	         -8.81382220	         -9.79840590	          5.11330564	          0.22485306	        -13.55697084	          4.00255481	          6.74567583	          0.03129374	          0.00999999	          0.01000002	          0.04390937	          0.01000014	          0.01893423	          0.10895427	          0.01312729	          0.01000001	          0.01000000	          0.01000003	          0.32232193	          0.18723106	          0.00999999	          0.02104474	          0.22857954	          0.01510612	          0.02800337	          0.18817583	          0.09035898	          0.09971505	          0.04872137	          0.13288822	          0.01170140	          0.00999999	          0.01845701	          0.01510581	          0.33773735	
          0.71466018	         -3.17389277	         -1.26003916	         -7.89135002	          0.67911581	          0.87503749	          0.01076299	        -14.23728454	          0.20282816	         -9.31901630	         -8.71687468	          9.90929006	         26.87642803	         29.33981423	         -3.89952266	         -9.05709981	        -11.40808966	          4.60979610	          0.20989772	        -13.04005502	          3.32936215	          6.82025746	          0.06149090	          0.00999999	          0.00999999	          0.03572604	          0.01000001	          0.01540552	          0.08864863	          0.01068077	          0.01915833	          0.01000079	          0.01000000	          0.29773457	          0.17023742	          0.00999999	          0.03841367	          0.18597950	          0.01229081	          0.05336927	          0.20234281	          0.08150797	          0.08113130	          0.09469626	          0.10812203	          0.01000002	          0.02482449	          0.01501721	          0.01229056	          0.35787072	
          0.72840364	         -3.22960835	         -1.19789632	         -7.56860907	          0.69597100	          0.87366310	          0.01005253	        -14.64641948	         -0.03543501	        -10.03785025	         -9.90634414	          9.16760659	         28.44264081	         29.27154745	         -3.79245719	         -9.38712623	        -13.00145403	          4.15345602	          0.19052978	        -12.52507953	          2.60078425	          6.86517574	          0.07110316	          0.00999999	          0.00999999	          0.02906783	          0.01000002	          0.01253453	          0.07212732	          0.00999999	          0.01558783	          0.01000007	          0.01000000	          0.25833010	          0.15164270	          0.00999999	          0.03689551	          0.15131876	          0.01000019	          0.07554686	          0.21156630	          0.07634548	          0.06601099	          0.08289172	          0.08797148	          0.01000002	          0.07441227	          0.01221847	          0.01000000	          0.38793567	
          0.74214711	         -3.27111746	         -1.09424727	         -7.20603803	          0.71286281	          0.87293301	          0.00921800	        -14.78673893	         -0.36634998	        -10.78676255	        -11.58776933	          8.26804936	         30.00218719	         29.10829384	         -3.64086247	         -9.77582961	        -14.47094335	          3.84890479	          0.16914974	        -12.02124953	          1.81784772	          6.88161644	          0.08666855	          0.00999999	          0.00999999	          0.02365050	          0.01000004	          0.01049626	          0.05868506	          0.01000000	          0.01268275	          0.01000002	          0.01467736	          0.21018549	          0.12338127	          0.00999999	          0.03033815	          0.12311770	          0.00999999	          0.10215141	          0.20120068	          0.07581924	          0.05370863	          0.07039870	          0.07157636	          0.01000001	          0.11396988	          0.01000001	          0.01000003	          0.39366831	
